<?xml version="1.0" encoding="UTF-8" standalone="no"?>
<svg
   viewBox="0 0 16 16"
   version="1.1"
   id="svg6"
   sodipodi:docname="ct_anchor.svg"
   inkscape:version="1.1.2 (0a00cf5339, 2022-02-04)"
   xmlns:inkscape="http://www.inkscape.org/namespaces/inkscape"
   xmlns:sodipodi="http://sodipodi.sourceforge.net/DTD/sodipodi-0.dtd"
   xmlns="http://www.w3.org/2000/svg"
   xmlns:svg="http://www.w3.org/2000/svg">
  <sodipodi:namedview
     id="namedview8"
     pagecolor="#505050"
     bordercolor="#ffffff"
     borderopacity="1"
     inkscape:pageshadow="0"
     inkscape:pageopacity="0"
     inkscape:pagecheckerboard="1"
     showgrid="false"
     inkscape:zoom="44.8125"
     inkscape:cx="7.9888424"
     inkscape:cy="8"
     inkscape:window-width="1920"
     inkscape:window-height="1080"
     inkscape:window-x="0"
     inkscape:window-y="0"
     inkscape:window-maximized="1"
     inkscape:current-layer="svg6" />
  <defs
     id="defs3051">
    <style
       type="text/css"
       id="current-color-scheme">
      .ColorScheme-Text {
        color:#eff0f1;
      }
      </style>
  </defs>
  <path
     style="fill:#dfbf8e;fill-opacity:1;stroke:none"
     d="M 8 2 C 6.89543 2 6 2.89543 6 4 C 6 4.93198 6.6373 5.71554 7.5 5.9375 L 7.5 8 L 5 8 L 5 9 L 7.5 9 L 7.5 10 L 7.5 12.96875 C 6.3123571 12.892642 4.936375 12.390014 3.9375 11.84375 L 4.4375 11.1875 L 3.59375 10.625 L 2 12.78125 C 2 12.78125 2.84332 13.30831 2.84375 13.3125 L 3.3125 12.6875 C 4.6170785 13.429365 6.4060192 14 8 14 C 9.598782 14 11.351983 13.401328 12.65625 12.65625 L 13.15625 13.3125 L 14 12.75 L 12.375 10.59375 L 11.5625 11.1875 L 12.03125 11.8125 C 11.030728 12.365584 9.7016152 12.891717 8.5 12.96875 L 8.5 10 L 8.5 9 L 11 9 L 11 8 L 8.5 8 L 8.5 5.9375 C 9.3627 5.71554 10 4.93198 10 4 C 10 2.89543 9.10457 2 8 2 z M 8 3 C 8.55228 3 9 3.44772 9 4 C 9 4.55228 8.55228 5 8 5 C 7.44772 5 7 4.55228 7 4 C 7 3.44772 7.44772 3 8 3 z "
     class="ColorScheme-Text"
     id="path4" />
</svg>
