<?xml version="1.0" encoding="UTF-8" standalone="no"?>
<svg
   viewBox="0 0 16 16"
   version="1.1"
   id="svg6"
   sodipodi:docname="ct_clear.svg"
   inkscape:version="1.1.2 (0a00cf5339, 2022-02-04)"
   xmlns:inkscape="http://www.inkscape.org/namespaces/inkscape"
   xmlns:sodipodi="http://sodipodi.sourceforge.net/DTD/sodipodi-0.dtd"
   xmlns="http://www.w3.org/2000/svg"
   xmlns:svg="http://www.w3.org/2000/svg">
  <sodipodi:namedview
     id="namedview8"
     pagecolor="#505050"
     bordercolor="#ffffff"
     borderopacity="1"
     inkscape:pageshadow="0"
     inkscape:pageopacity="0"
     inkscape:pagecheckerboard="1"
     showgrid="false"
     inkscape:zoom="44.8125"
     inkscape:cx="7.9888424"
     inkscape:cy="8"
     inkscape:window-width="1920"
     inkscape:window-height="1080"
     inkscape:window-x="0"
     inkscape:window-y="0"
     inkscape:window-maximized="1"
     inkscape:current-layer="svg6" />
  <defs
     id="defs3051">
    <style
       type="text/css"
       id="current-color-scheme">
      .ColorScheme-Text {
        color:#eff0f1;
      }
      </style>
  </defs>
  <path
     style="fill:#dfbf8e;fill-opacity:1;stroke:none"
     d="M 2.5 2 C 2.2238576 2 2 2.2238576 2 2.5 C 2 2.7761424 2.2238576 3 2.5 3 C 2.7761424 3 3 2.7761424 3 2.5 C 3 2.2238576 2.7761424 2 2.5 2 z M 5.5 2 C 5.2238576 2 5 2.2238576 5 2.5 C 5 2.7761424 5.2238576 3 5.5 3 C 5.7761424 3 6 2.7761424 6 2.5 C 6 2.2238576 5.7761424 2 5.5 2 z M 13.160156 2 L 9.7382812 6.3105469 C 9.062765 6.0537156 8.2111082 5.9824498 7 6 C 5.6442244 7.2930815 4.7507597 7.7091991 2 8 L 2 9 C 4.1137135 12.371692 5.4745763 14 9 14 L 10 14 C 11.073961 12.616195 11.627119 11.610169 12 10 L 12 9 C 11.558507 8.0093924 11.158004 7.334604 10.673828 6.8789062 L 14 2.6601562 L 13.160156 2 z M 4 4 C 3.4477153 4 3 4.4477153 3 5 C 3 5.5522847 3.4477153 6 4 6 C 4.5522847 6 5 5.5522847 5 5 C 5 4.4477153 4.5522847 4 4 4 z M 7.5292969 7.1015625 C 9.6322903 7.2655765 10.168585 8.0162663 10.857422 9.6992188 C 10.284594 11.24586 10.385403 11.602833 9.2734375 12.96875 C 6.1355922 12.694915 5.052768 11.540538 3.3261719 8.8300781 C 5.122354 8.7567482 6.1084274 8.1046285 7.5292969 7.1015625 z "
     class="ColorScheme-Text"
     id="path4" />
</svg>
