<?xml version="1.0" encoding="UTF-8" standalone="no"?>
<svg
   height="16"
   width="16"
   version="1.1"
   id="svg8"
   sodipodi:docname="ct_cpp.svg"
   inkscape:version="1.1.2 (0a00cf5339, 2022-02-04)"
   xmlns:inkscape="http://www.inkscape.org/namespaces/inkscape"
   xmlns:sodipodi="http://sodipodi.sourceforge.net/DTD/sodipodi-0.dtd"
   xmlns="http://www.w3.org/2000/svg"
   xmlns:svg="http://www.w3.org/2000/svg">
  <defs
     id="defs12" />
  <sodipodi:namedview
     id="namedview10"
     pagecolor="#505050"
     bordercolor="#ffffff"
     borderopacity="1"
     inkscape:pageshadow="0"
     inkscape:pageopacity="0"
     inkscape:pagecheckerboard="1"
     showgrid="false"
     inkscape:zoom="44.8125"
     inkscape:cx="7.9888424"
     inkscape:cy="8"
     inkscape:window-width="1920"
     inkscape:window-height="1080"
     inkscape:window-x="0"
     inkscape:window-y="0"
     inkscape:window-maximized="1"
     inkscape:current-layer="svg8" />
  <g
     fill="#1d70f7"
     id="g6"
     style="fill:#458588;fill-opacity:1">
    <path
       d="M8 2v1H7v1h1v1h1V4h1V3H9V2zm4 0v1h-1v1h1v1h1V4h1V3h-1V2z"
       id="path2"
       style="fill:#458588;fill-opacity:1" />
    <path
       d="M6 6a4 4 0 0 0-4 4 4 4 0 0 0 4 4 4 4 0 0 0 2.826-1.174l-.707-.707A3 3 0 0 1 6 13a3 3 0 0 1-3-3 3 3 0 0 1 3-3 3 3 0 0 1 2.12.88l.706-.706A4 4 0 0 0 6 6z"
       fill-rule="evenodd"
       id="path4"
       style="fill:#458588;fill-opacity:1" />
  </g>
</svg>
