<?xml version="1.0" encoding="UTF-8" standalone="no"?>
<svg
   version="1.1"
   viewBox="0 0 16 16"
   id="svg9"
   sodipodi:docname="ct_color_bg.svg"
   inkscape:version="1.1.2 (0a00cf5339, 2022-02-04)"
   xmlns:inkscape="http://www.inkscape.org/namespaces/inkscape"
   xmlns:sodipodi="http://sodipodi.sourceforge.net/DTD/sodipodi-0.dtd"
   xmlns="http://www.w3.org/2000/svg"
   xmlns:svg="http://www.w3.org/2000/svg">
  <sodipodi:namedview
     id="namedview11"
     pagecolor="#505050"
     bordercolor="#ffffff"
     borderopacity="1"
     inkscape:pageshadow="0"
     inkscape:pageopacity="0"
     inkscape:pagecheckerboard="1"
     showgrid="false"
     inkscape:zoom="44.8125"
     inkscape:cx="7.9888424"
     inkscape:cy="8"
     inkscape:window-width="1920"
     inkscape:window-height="1080"
     inkscape:window-x="0"
     inkscape:window-y="0"
     inkscape:window-maximized="1"
     inkscape:current-layer="svg9" />
  <defs
     id="defs3">
    <style
       id="current-color-scheme"
       type="text/css">
            .ColorScheme-Text {
                color:#eff0f1;
            }
        </style>
  </defs>
  <path
     class="ColorScheme-Text"
     style="fill:#dfbf8e;fill-opacity:1;stroke:none"
     d="M 9 13 L 13 13 L 13 6 L 10 6 L 10 3 L 6 3 L 6 2 L 11 2 L 14 5 L 14 14 L 9 14 L 9 13 Z"
     id="path5" />
  <path
     class="ColorScheme-Text"
     style="fill:#dfbf8e;fill-opacity:1;stroke:none"
     d="M 5.00391 2.0293 C 4.44148 3.99204 3.30112 5.70402 2.18489 7.3871 C 1.54262 8.39426 0.81264 9.54061 1.05005 10.7925 C 1.3091 12.554 2.94184 13.9239 4.69622 14.0182 C 6.49415 14.1852 8.35128 13.0138 8.85221 11.256 C 9.11621 10.4352 9.01832 9.57207 8.63577 8.80484 C 7.86811 7.25787 6.7453 5.91923 5.96657 4.37688 C 5.57601 3.62602 5.24727 2.84012 5.00391 2.0293 Z M 7.77148 8.25391 C 8.1674 8.91977 8.51327 9.66701 8.42165 10.4627 C 8.32022 12.0447 6.91171 13.3494 5.35452 13.4675 C 4.52178 13.5531 3.66287 13.3265 2.98047 12.8418 C 4.80534 13.2877 6.8802 12.2855 7.58336 10.5265 C 7.88602 9.81116 7.92752 9.00985 7.77148 8.25391 Z"
     id="path7" />
</svg>
