<?xml version="1.0" encoding="UTF-8" standalone="no"?>
<svg
   viewBox="0 0 16 16"
   version="1.1"
   id="svg8"
   sodipodi:docname="ct_case_upper.svg"
   inkscape:version="1.1.2 (0a00cf5339, 2022-02-04)"
   xmlns:inkscape="http://www.inkscape.org/namespaces/inkscape"
   xmlns:sodipodi="http://sodipodi.sourceforge.net/DTD/sodipodi-0.dtd"
   xmlns="http://www.w3.org/2000/svg"
   xmlns:svg="http://www.w3.org/2000/svg">
  <sodipodi:namedview
     id="namedview10"
     pagecolor="#505050"
     bordercolor="#ffffff"
     borderopacity="1"
     inkscape:pageshadow="0"
     inkscape:pageopacity="0"
     inkscape:pagecheckerboard="1"
     showgrid="false"
     inkscape:zoom="44.8125"
     inkscape:cx="7.9888424"
     inkscape:cy="8"
     inkscape:window-width="1920"
     inkscape:window-height="1080"
     inkscape:window-x="0"
     inkscape:window-y="0"
     inkscape:window-maximized="1"
     inkscape:current-layer="svg8" />
  <defs
     id="defs3051">
    <style
       type="text/css"
       id="current-color-scheme">
      .ColorScheme-Text {
        color:#eff0f1;
      }
      .ColorScheme-Highlight {
        color:#3daee9;
      }
      </style>
  </defs>
  <path
     style="fill:#dfbf8e;fill-opacity:1;stroke:none"
     d="M 3.8261719 5.9980469 L 0.99609375 13.998047 L 2.140625 13.998047 L 3.1132812 11.712891 L 5.8378906 11.712891 L 6.7109375 13.998047 L 7.8535156 13.998047 L 5.2636719 5.9980469 L 3.8261719 5.9980469 z M 8.7109375 6 L 8.7109375 14 L 12.710938 14 A 2.285714 2.285714 0 0 0 14.996094 11.714844 A 2.285714 2.285714 0 0 0 13.462891 9.5605469 A 2.285714 2.285714 0 0 0 13.853516 8.2851562 A 2.285714 2.285714 0 0 0 11.566406 6 L 9.28125 6 L 8.7109375 6 z M 9.8535156 7.1425781 L 11.566406 7.1425781 A 1.142857 1.142857 0 0 1 12.708984 8.2851562 A 1.142857 1.142857 0 0 1 11.566406 9.4277344 L 9.8535156 9.4277344 L 9.8535156 7.1425781 z M 4.5429688 7.2382812 L 5.6152344 10.570312 L 3.359375 10.570312 L 4.5429688 7.2382812 z M 9.8535156 10.572266 L 12.710938 10.572266 A 1.142857 1.142857 0 0 1 13.853516 11.714844 A 1.142857 1.142857 0 0 1 12.710938 12.857422 L 9.8535156 12.857422 L 9.8535156 10.572266 z "
     class="ColorScheme-Text"
     id="path4" />
  <path
     style="fill:#458588;fill-opacity:1;stroke:none"
     d="m 8.71,5 5,0 -2.5,-3 z"
     class="ColorScheme-Highlight"
     id="path6" />
</svg>
