<?xml version="1.0" encoding="UTF-8" standalone="no"?>
<svg
   viewBox="0 0 16 16"
   version="1.1"
   id="svg6"
   sodipodi:docname="ct_fmt-txt-underline.svg"
   inkscape:version="1.1.2 (0a00cf5339, 2022-02-04)"
   xmlns:inkscape="http://www.inkscape.org/namespaces/inkscape"
   xmlns:sodipodi="http://sodipodi.sourceforge.net/DTD/sodipodi-0.dtd"
   xmlns="http://www.w3.org/2000/svg"
   xmlns:svg="http://www.w3.org/2000/svg">
  <sodipodi:namedview
     id="namedview8"
     pagecolor="#505050"
     bordercolor="#ffffff"
     borderopacity="1"
     inkscape:pageshadow="0"
     inkscape:pageopacity="0"
     inkscape:pagecheckerboard="1"
     showgrid="false"
     inkscape:zoom="44.8125"
     inkscape:cx="7.9888424"
     inkscape:cy="8"
     inkscape:window-width="1920"
     inkscape:window-height="1080"
     inkscape:window-x="0"
     inkscape:window-y="0"
     inkscape:window-maximized="1"
     inkscape:current-layer="svg6" />
  <defs
     id="defs3051">
    <style
       type="text/css"
       id="current-color-scheme">
      .ColorScheme-Text {
        color:#eff0f1;
      }
      </style>
  </defs>
  <path
     style="fill:#dfbf8e;fill-opacity:1;stroke:none"
     d="M 4 2 L 4 4 L 4 5 L 4 9 C 4 10.65685 5.567 12 7.5 12 C 9.433 12 11 10.65685 11 9 L 11 4 L 11 2 L 10 2 L 10 4 L 10 6.90625 L 10 9 C 10 10.10457 9.10457 11 8 11 C 6.89543 11 6 10.10457 6 9 L 6 6.3125 L 6 5 L 6 4 L 6 2 L 4 2 z M 2 13 L 2 14 L 14 14 L 14 13 L 2 13 z "
     class="ColorScheme-Text"
     id="path4" />
</svg>
