<?xml version="1.0" encoding="UTF-8" standalone="no"?>
<svg
   viewBox="0 0 16 16"
   version="1.1"
   id="svg6"
   sodipodi:docname="ct_fmt-txt-strikethrough.svg"
   inkscape:version="1.1.2 (0a00cf5339, 2022-02-04)"
   xmlns:inkscape="http://www.inkscape.org/namespaces/inkscape"
   xmlns:sodipodi="http://sodipodi.sourceforge.net/DTD/sodipodi-0.dtd"
   xmlns="http://www.w3.org/2000/svg"
   xmlns:svg="http://www.w3.org/2000/svg">
  <sodipodi:namedview
     id="namedview8"
     pagecolor="#505050"
     bordercolor="#ffffff"
     borderopacity="1"
     inkscape:pageshadow="0"
     inkscape:pageopacity="0"
     inkscape:pagecheckerboard="1"
     showgrid="false"
     inkscape:zoom="44.8125"
     inkscape:cx="7.9888424"
     inkscape:cy="8"
     inkscape:window-width="1920"
     inkscape:window-height="1080"
     inkscape:window-x="0"
     inkscape:window-y="0"
     inkscape:window-maximized="1"
     inkscape:current-layer="svg6" />
  <defs
     id="defs3051">
    <style
       type="text/css"
       id="current-color-scheme">
      .ColorScheme-Text {
        color:#eff0f1;
      }
      </style>
  </defs>
  <path
     style="fill:#dfbf8e;fill-opacity:1;stroke:none"
     d="M 8.28125 2 C 5.87276 1.9779 2.98125 3.61871 4.59375 7.3125 L 10.25 7.3125 C 1.25 5.0625 8.75114 -0.1875 10.28125 5.8125 L 11 5.8125 L 11 3.75 C 10.9887 2.625 9.72635 2.01328 8.28125 2 z M 2 8 L 2 8.75 L 2 9 L 14 9 L 14 8.75 L 14 8 L 2 8 z M 8.75 9.5 C 12.71497 13.43247 6.77502 14.69352 5 10.25 L 4.25 10.25 L 4.25 12.5 C 4.39332 14.38685 13.25 15.5 11.75 9.5 L 8.75 9.5 z "
     class="ColorScheme-Text"
     id="path4" />
</svg>
