<?xml version="1.0" encoding="UTF-8" standalone="no"?>
<svg
   viewBox="0 0 16 16"
   version="1.1"
   id="svg6"
   sodipodi:docname="ct_fmt-txt-superscript.svg"
   inkscape:version="1.1.2 (0a00cf5339, 2022-02-04)"
   xmlns:inkscape="http://www.inkscape.org/namespaces/inkscape"
   xmlns:sodipodi="http://sodipodi.sourceforge.net/DTD/sodipodi-0.dtd"
   xmlns="http://www.w3.org/2000/svg"
   xmlns:svg="http://www.w3.org/2000/svg">
  <sodipodi:namedview
     id="namedview8"
     pagecolor="#505050"
     bordercolor="#ffffff"
     borderopacity="1"
     inkscape:pageshadow="0"
     inkscape:pageopacity="0"
     inkscape:pagecheckerboard="1"
     showgrid="false"
     inkscape:zoom="44.8125"
     inkscape:cx="7.9888424"
     inkscape:cy="8"
     inkscape:window-width="1920"
     inkscape:window-height="1080"
     inkscape:window-x="0"
     inkscape:window-y="0"
     inkscape:window-maximized="1"
     inkscape:current-layer="svg6" />
  <defs
     id="defs3051">
    <style
       type="text/css"
       id="current-color-scheme">
      .ColorScheme-Text {
        color:#eff0f1;
      }
      </style>
  </defs>
  <path
     style="fill:#dfbf8e;fill-opacity:1;stroke:none"
     d="M 6.3828125 2 L 2 13 L 3.3574219 13 L 4.546875 10 L 9.4746094 10 L 10.626953 13 L 12 13 L 7.7480469 2 L 6.3828125 2 z M 11 2 L 11 7 L 12 7 L 13.5 7 C 14.32843 7 15 6.32843 15 5.5 C 15 4.9667 14.73181 4.48473 14.3125 4.21875 C 14.42796 4.00621 14.5 3.75888 14.5 3.5 C 14.5 2.67157 13.82844 2 13 2 L 12 2 L 11 2 z M 12 3 L 13 3 C 13.27614 3 13.5 3.22386 13.5 3.5 C 13.5 3.77614 13.27614 4 13 4 L 12 4 L 12 3 z M 7.0625 3.328125 C 7.17566 3.704205 7.773975 5.4100894 8.859375 8.4433594 L 9.0839844 9 L 4.9414062 9 L 7.0625 3.328125 z M 12 5 L 13 5 L 13.5 5 C 13.77615 5 14 5.22386 14 5.5 C 14 5.77614 13.77615 6 13.5 6 L 12 6 L 12 5 z "
     class="ColorScheme-Text"
     id="path4" />
</svg>
