<?xml version="1.0" encoding="UTF-8" standalone="no"?>
<svg
   viewBox="0 0 16 16"
   version="1.1"
   id="svg6"
   sodipodi:docname="ct_fmt-txt-subscript.svg"
   inkscape:version="1.1.2 (0a00cf5339, 2022-02-04)"
   xmlns:inkscape="http://www.inkscape.org/namespaces/inkscape"
   xmlns:sodipodi="http://sodipodi.sourceforge.net/DTD/sodipodi-0.dtd"
   xmlns="http://www.w3.org/2000/svg"
   xmlns:svg="http://www.w3.org/2000/svg">
  <sodipodi:namedview
     id="namedview8"
     pagecolor="#505050"
     bordercolor="#ffffff"
     borderopacity="1"
     inkscape:pageshadow="0"
     inkscape:pageopacity="0"
     inkscape:pagecheckerboard="1"
     showgrid="false"
     inkscape:zoom="44.8125"
     inkscape:cx="7.9888424"
     inkscape:cy="8"
     inkscape:window-width="1920"
     inkscape:window-height="1080"
     inkscape:window-x="0"
     inkscape:window-y="0"
     inkscape:window-maximized="1"
     inkscape:current-layer="svg6" />
  <defs
     id="defs3051">
    <style
       type="text/css"
       id="current-color-scheme">
      .ColorScheme-Text {
        color:#eff0f1;
      }
      </style>
  </defs>
  <path
     style="fill:#dfbf8e;fill-opacity:1;stroke:none"
     d="M 6.3828125 2 L 2 13 L 3.3574219 13 L 4.546875 10 L 9 10 L 9.4746094 10 L 10 10 L 10 9 L 10 7.828125 L 7.7480469 2 L 6.3828125 2 z M 7.0625 3.328125 C 7.17566 3.704205 7.773975 5.4100894 8.859375 8.4433594 L 9.0839844 9 L 4.9414062 9 L 7.0625 3.328125 z M 11 9 L 11 14 L 12 14 L 13.5 14 C 14.32843 14 15 13.32843 15 12.5 C 15 11.9667 14.73181 11.48473 14.3125 11.21875 C 14.42796 11.00621 14.5 10.75888 14.5 10.5 C 14.5 9.67157 13.82844 9 13 9 L 12 9 L 11 9 z M 12 10 L 13 10 C 13.27614 10 13.5 10.22386 13.5 10.5 C 13.5 10.77614 13.27614 11 13 11 L 12 11 L 12 10 z M 12 12 L 13 12 L 13.5 12 C 13.77615 12 14 12.22386 14 12.5 C 14 12.77614 13.77615 13 13.5 13 L 12 13 L 12 12 z "
     class="ColorScheme-Text"
     id="path4" />
</svg>
