<?xml version="1.0" encoding="UTF-8" standalone="no"?>
<svg
   viewBox="0 0 16 16"
   version="1.1"
   id="svg6"
   sodipodi:docname="ct_file_icon.svg"
   inkscape:version="1.1.2 (0a00cf5339, 2022-02-04)"
   xmlns:inkscape="http://www.inkscape.org/namespaces/inkscape"
   xmlns:sodipodi="http://sodipodi.sourceforge.net/DTD/sodipodi-0.dtd"
   xmlns="http://www.w3.org/2000/svg"
   xmlns:svg="http://www.w3.org/2000/svg">
  <sodipodi:namedview
     id="namedview8"
     pagecolor="#505050"
     bordercolor="#ffffff"
     borderopacity="1"
     inkscape:pageshadow="0"
     inkscape:pageopacity="0"
     inkscape:pagecheckerboard="1"
     showgrid="false"
     inkscape:zoom="44.8125"
     inkscape:cx="7.9888424"
     inkscape:cy="8"
     inkscape:window-width="1920"
     inkscape:window-height="1080"
     inkscape:window-x="0"
     inkscape:window-y="0"
     inkscape:window-maximized="1"
     inkscape:current-layer="svg6" />
  <defs
     id="defs3051">
    <style
       type="text/css"
       id="current-color-scheme">
      .ColorScheme-Text {
        color:#eff0f1;
      }
      </style>
  </defs>
  <path
     style="fill:#dfbf8e;fill-opacity:1;stroke:none"
     d="M 8.5 2 C 7.119294 2 6.0000083 3.1192857 6 4.5 L 6 10.535156 L 6.0019531 10.535156 C 6.0210368 11.349063 6.6858693 11.999164 7.5 12 C 8.3284271 12 9 11.328427 9 10.5 L 9 5 L 8 5 L 8 10.5 C 8 10.776142 7.7761424 11 7.5 11 C 7.2238576 11 7 10.776142 7 10.5 L 7 4.5 C 7 3.6715729 7.6715729 3 8.5 3 C 9.3284271 3 10 3.6715729 10 4.5 L 10 10.5 C 10 11.880712 8.8807119 13 7.5 13 C 6.1192881 13 5 11.880712 5 10.5 L 5 4 L 4 4 L 4 10.5 C 4 12.433 5.567 14.000008 7.5 14 C 9.433 14.000008 11.000008 12.433 11 10.5 L 11 4.4648438 L 10.998047 4.4648438 C 10.978872 3.0986385 9.866332 2.0009322 8.5 2 z "
     class="ColorScheme-Text"
     id="path4" />
</svg>
