<?xml version="1.0" encoding="UTF-8" standalone="no"?>
<svg
   viewBox="0 0 16 16"
   version="1.1"
   id="svg6"
   sodipodi:docname="ct_home.svg"
   inkscape:version="1.1.2 (0a00cf5339, 2022-02-04)"
   xmlns:inkscape="http://www.inkscape.org/namespaces/inkscape"
   xmlns:sodipodi="http://sodipodi.sourceforge.net/DTD/sodipodi-0.dtd"
   xmlns="http://www.w3.org/2000/svg"
   xmlns:svg="http://www.w3.org/2000/svg">
  <sodipodi:namedview
     id="namedview8"
     pagecolor="#505050"
     bordercolor="#ffffff"
     borderopacity="1"
     inkscape:pageshadow="0"
     inkscape:pageopacity="0"
     inkscape:pagecheckerboard="1"
     showgrid="false"
     inkscape:zoom="44.8125"
     inkscape:cx="7.9888424"
     inkscape:cy="8"
     inkscape:window-width="1920"
     inkscape:window-height="1080"
     inkscape:window-x="0"
     inkscape:window-y="0"
     inkscape:window-maximized="1"
     inkscape:current-layer="svg6" />
  <defs
     id="defs3051">
    <style
       type="text/css"
       id="current-color-scheme">
      .ColorScheme-Text {
        color:#eff0f1;
      }
      </style>
  </defs>
  <path
     style="fill:#dfbf8e;fill-opacity:1;stroke:none"
     d="M 8 2 L 7.2929688 2.6992188 L 7.296875 2.703125 L 2 7.9980469 L 2 8 L 2 9 L 3.0078125 9 L 3.0078125 13 L 3 13 L 3 14 L 13 14 L 13 13 L 13 9 L 14 9 L 14 8 L 14 7.9980469 L 12.857422 6.8554688 L 12.15625 7.5566406 L 12.599609 8 L 12 8 L 12 13 L 9 13 L 9 10 L 7 10 L 7 13 L 4 13 L 4 9 L 4 8 L 3.4003906 8 L 7.9980469 3.4042969 L 8 3.40625 L 8.0019531 3.4042969 L 9.4433594 4.84375 L 10.144531 4.1425781 L 8.703125 2.703125 L 8.7070312 2.6992188 L 8 2 z M 11 3 L 11 6 L 12.007812 6 L 12.007812 3 L 11 3 z "
     class="ColorScheme-Text"
     id="path4" />
</svg>
