<?xml version="1.0" encoding="UTF-8" standalone="no"?>
<svg
   viewBox="0 0 16 16"
   version="1.1"
   id="svg6"
   sodipodi:docname="ct_image_edit.svg"
   inkscape:version="1.1.2 (0a00cf5339, 2022-02-04)"
   xmlns:inkscape="http://www.inkscape.org/namespaces/inkscape"
   xmlns:sodipodi="http://sodipodi.sourceforge.net/DTD/sodipodi-0.dtd"
   xmlns="http://www.w3.org/2000/svg"
   xmlns:svg="http://www.w3.org/2000/svg">
  <sodipodi:namedview
     id="namedview8"
     pagecolor="#505050"
     bordercolor="#ffffff"
     borderopacity="1"
     inkscape:pageshadow="0"
     inkscape:pageopacity="0"
     inkscape:pagecheckerboard="1"
     showgrid="false"
     inkscape:zoom="44.8125"
     inkscape:cx="7.9888424"
     inkscape:cy="8"
     inkscape:window-width="1920"
     inkscape:window-height="1080"
     inkscape:window-x="0"
     inkscape:window-y="0"
     inkscape:window-maximized="1"
     inkscape:current-layer="svg6" />
  <defs
     id="defs3051">
    <style
       type="text/css"
       id="current-color-scheme">
      .ColorScheme-Text {
        color:#eff0f1;
      }
      </style>
  </defs>
  <path
     style="fill:#dfbf8e;fill-opacity:1;stroke:none"
     d="M 2 2 L 2 13.28125 L 2 14 L 7 14 L 7 13 L 7 12 L 8 11 L 9 10 L 10 9 L 11 8 L 11.5 7.5 L 11 7 L 7.65625 10.34375 L 6.3125 9 L 6.28125 9 L 3 12.28125 L 3 3 L 13 3 L 13 8 L 14 8 L 14 2 L 2 2 z M 6 4 C 4.8954305 4 4 4.8954305 4 6 C 4 7.1045695 4.8954305 8 6 8 C 7.1045695 8 8 7.1045695 8 6 C 8 4.8954305 7.1045695 4 6 4 z M 12 8 L 11 9 L 10 10 L 8 12 L 8 13 L 8 14 L 10 14 L 10.59375 13.40625 L 11 13 L 12 12 L 13 11 L 14 10 L 12 8 z M 11.6875 9.6875 L 12.28125 10.28125 L 12 10.5625 L 10.59375 11.96875 L 10.59375 12 L 9.3125 13.28125 L 8.71875 12.6875 L 10.59375 10.78125 L 11.6875 9.6875 z "
     class="ColorScheme-Text"
     id="path4" />
</svg>
