<?xml version="1.0" encoding="UTF-8" standalone="no"?>
<svg
   viewBox="0 0 16 16"
   version="1.1"
   id="svg6"
   sodipodi:docname="ct_people.svg"
   inkscape:version="1.1.2 (0a00cf5339, 2022-02-04)"
   xmlns:inkscape="http://www.inkscape.org/namespaces/inkscape"
   xmlns:sodipodi="http://sodipodi.sourceforge.net/DTD/sodipodi-0.dtd"
   xmlns="http://www.w3.org/2000/svg"
   xmlns:svg="http://www.w3.org/2000/svg">
  <sodipodi:namedview
     id="namedview8"
     pagecolor="#505050"
     bordercolor="#ffffff"
     borderopacity="1"
     inkscape:pageshadow="0"
     inkscape:pageopacity="0"
     inkscape:pagecheckerboard="1"
     showgrid="false"
     inkscape:zoom="44.8125"
     inkscape:cx="7.9888424"
     inkscape:cy="8"
     inkscape:window-width="1920"
     inkscape:window-height="1080"
     inkscape:window-x="0"
     inkscape:window-y="0"
     inkscape:window-maximized="1"
     inkscape:current-layer="svg6" />
  <defs
     id="defs3051">
    <style
       type="text/css"
       id="current-color-scheme">
      .ColorScheme-Text {
        color:#eff0f1;
      }
      </style>
  </defs>
  <path
     style="fill:#dfbf8e;fill-opacity:1;stroke:none"
     d="M 11.5 2 A 2.5 2.5 0 0 0 9 4.5 A 2.5 2.5 0 0 0 11.5 7 A 2.5 2.5 0 0 0 14 4.5 A 2.5 2.5 0 0 0 11.5 2 z M 5.5 4 A 2.5 2.5 0 0 0 3 6.5 A 2.5 2.5 0 0 0 5.5 9 A 2.5 2.5 0 0 0 8 6.5 A 2.5 2.5 0 0 0 5.5 4 z M 11.646484 8 A 3.4999979 4 0 0 0 8.4921875 10.273438 A 4.5 5 0 0 1 9.6171875 12 L 14.146484 12 L 15.146484 12 A 3.4999979 4 0 0 0 11.646484 8 z M 11.646484 9 A 2.5 3 0 0 1 14 11 L 9.2929688 11 A 2.5 3 0 0 1 11.646484 9 z M 5.5 10 A 3.4999979 4 0 0 0 2 14 L 3 14 L 8 14 L 9 14 A 3.4999979 4 0 0 0 5.5 10 z M 5.5 11 A 2.5 3 0 0 1 7.8535156 13 L 3.1464844 13 A 2.5 3 0 0 1 5.5 11 z "
     class="ColorScheme-Text"
     id="path4" />
</svg>
