<?xml version="1.0" encoding="UTF-8" standalone="no"?>
<svg
   viewBox="0 0 16 16"
   version="1.1"
   id="svg6"
   sodipodi:docname="ct_rotate-left.svg"
   inkscape:version="1.1.2 (0a00cf5339, 2022-02-04)"
   xmlns:inkscape="http://www.inkscape.org/namespaces/inkscape"
   xmlns:sodipodi="http://sodipodi.sourceforge.net/DTD/sodipodi-0.dtd"
   xmlns="http://www.w3.org/2000/svg"
   xmlns:svg="http://www.w3.org/2000/svg">
  <sodipodi:namedview
     id="namedview8"
     pagecolor="#505050"
     bordercolor="#ffffff"
     borderopacity="1"
     inkscape:pageshadow="0"
     inkscape:pageopacity="0"
     inkscape:pagecheckerboard="1"
     showgrid="false"
     inkscape:zoom="44.8125"
     inkscape:cx="7.9888424"
     inkscape:cy="8"
     inkscape:window-width="1920"
     inkscape:window-height="1080"
     inkscape:window-x="0"
     inkscape:window-y="0"
     inkscape:window-maximized="1"
     inkscape:current-layer="svg6" />
  <defs
     id="defs3051">
    <style
       type="text/css"
       id="current-color-scheme">
      .ColorScheme-Text {
        color:#eff0f1;
      }
      </style>
  </defs>
  <path
     style="fill:#dfbf8e;fill-opacity:1;stroke:none"
     d="M 7.828125 1.671875 L 6.8789062 2.6210938 L 5 4.5 L 6.8789062 6.3789062 L 7.828125 7.328125 L 8.5351562 6.6210938 L 7.5859375 5.671875 L 6.9140625 5 L 11 5 L 11 4 L 6.9140625 4 L 7.5859375 3.328125 L 8.5351562 2.3789062 L 7.828125 1.671875 z M 12.5 5 C 12.22386 5 12 5.22386 12 5.5 C 12 5.77614 12.22386 6 12.5 6 C 12.77614 6 13 5.77614 13 5.5 C 13 5.22386 12.77614 5 12.5 5 z M 5.53125 6.5625 L 2 10.09375 L 5.90625 14 L 9.4375 10.46875 L 5.53125 6.5625 z M 13.5 8 C 13.22386 8 13 8.22386 13 8.5 C 13 8.77614 13.22386 9 13.5 9 C 13.77614 9 14 8.77614 14 8.5 C 14 8.22386 13.77614 8 13.5 8 z M 12.5 11 C 12.22386 11 12 11.22386 12 11.5 C 12 11.77614 12.22386 12 12.5 12 C 12.77614 12 13 11.77614 13 11.5 C 13 11.22386 12.77614 11 12.5 11 z M 9.5 12 C 9.22386 12 9 12.22386 9 12.5 C 9 12.77614 9.22386 13 9.5 13 C 9.77614 13 10 12.77614 10 12.5 C 10 12.22386 9.77614 12 9.5 12 z "
     class="ColorScheme-Text"
     id="path4" />
</svg>
