<?xml version="1.0" encoding="UTF-8" standalone="no"?>
<svg
   viewBox="0 0 16 16"
   version="1.1"
   id="svg6"
   sodipodi:docname="ct_rotate-right.svg"
   inkscape:version="1.1.2 (0a00cf5339, 2022-02-04)"
   xmlns:inkscape="http://www.inkscape.org/namespaces/inkscape"
   xmlns:sodipodi="http://sodipodi.sourceforge.net/DTD/sodipodi-0.dtd"
   xmlns="http://www.w3.org/2000/svg"
   xmlns:svg="http://www.w3.org/2000/svg">
  <sodipodi:namedview
     id="namedview8"
     pagecolor="#505050"
     bordercolor="#ffffff"
     borderopacity="1"
     inkscape:pageshadow="0"
     inkscape:pageopacity="0"
     inkscape:pagecheckerboard="1"
     showgrid="false"
     inkscape:zoom="44.8125"
     inkscape:cx="7.9888424"
     inkscape:cy="8"
     inkscape:window-width="1920"
     inkscape:window-height="1080"
     inkscape:window-x="0"
     inkscape:window-y="0"
     inkscape:window-maximized="1"
     inkscape:current-layer="svg6" />
  <defs
     id="defs3051">
    <style
       type="text/css"
       id="current-color-scheme">
      .ColorScheme-Text {
        color:#eff0f1;
      }
      </style>
  </defs>
  <path
     style="fill:#dfbf8e;fill-opacity:1;stroke:none"
     d="M 8.171875 1.671875 L 7.4648438 2.3789062 L 8.4140625 3.328125 L 9.0859375 4 L 5 4 L 5 5 L 9.0859375 5 L 8.4140625 5.671875 L 7.4648438 6.6210938 L 8.171875 7.328125 L 9.1210938 6.3789062 L 11 4.5 L 9.1210938 2.6210938 L 8.171875 1.671875 z M 3.5 5 C 3.22386 5 3 5.22386 3 5.5 C 3 5.77614 3.22386 6 3.5 6 C 3.77614 6 4 5.77614 4 5.5 C 4 5.22386 3.77614 5 3.5 5 z M 10.46875 6.5625 L 6.5625 10.46875 L 10.09375 14 L 14 10.09375 L 10.46875 6.5625 z M 2.5 8 C 2.22386 8 2 8.22386 2 8.5 C 2 8.77614 2.22386 9 2.5 9 C 2.77614 9 3 8.77614 3 8.5 C 3 8.22386 2.77614 8 2.5 8 z M 3.5 11 C 3.22386 11 3 11.22386 3 11.5 C 3 11.77614 3.22386 12 3.5 12 C 3.77614 12 4 11.77614 4 11.5 C 4 11.22386 3.77614 11 3.5 11 z M 6.5 12 C 6.22386 12 6 12.22386 6 12.5 C 6 12.77614 6.22386 13 6.5 13 C 6.77614 13 7 12.77614 7 12.5 C 7 12.22386 6.77614 12 6.5 12 z "
     class="ColorScheme-Text"
     id="path4" />
</svg>
