<?xml version="1.0" encoding="UTF-8" standalone="no"?>
<svg
   viewBox="0 0 16 16"
   version="1.1"
   id="svg6"
   sodipodi:docname="ct_stop.svg"
   inkscape:version="1.1.2 (0a00cf5339, 2022-02-04)"
   xmlns:inkscape="http://www.inkscape.org/namespaces/inkscape"
   xmlns:sodipodi="http://sodipodi.sourceforge.net/DTD/sodipodi-0.dtd"
   xmlns="http://www.w3.org/2000/svg"
   xmlns:svg="http://www.w3.org/2000/svg">
  <sodipodi:namedview
     id="namedview8"
     pagecolor="#505050"
     bordercolor="#ffffff"
     borderopacity="1"
     inkscape:pageshadow="0"
     inkscape:pageopacity="0"
     inkscape:pagecheckerboard="1"
     showgrid="false"
     inkscape:zoom="44.8125"
     inkscape:cx="7.9888424"
     inkscape:cy="8"
     inkscape:window-width="1920"
     inkscape:window-height="1080"
     inkscape:window-x="0"
     inkscape:window-y="0"
     inkscape:window-maximized="1"
     inkscape:current-layer="svg6" />
  <defs
     id="defs3051">
    <style
       type="text/css"
       id="current-color-scheme">
      .ColorScheme-Text {
        color:#232629;
      }
      .ColorScheme-NegativeText {
        color:#da4453;
      }
      </style>
  </defs>
  <path
     style="fill:#cc241d;fill-opacity:1;stroke:none"
     class="ColorScheme-NegativeText"
     d="M8 2A6 5.99997 0 0 0 2 8 6 5.99997 0 0 0 8 14 6 5.99997 0 0 0 14 8 6 5.99997 0 0 0 8 2M8 3A5 4.999975 0 0 1 13 8 5 4.999975 0 0 1 8 13 5 4.999975 0 0 1 3 8 5 4.999975 0 0 1 8 3M5.548828 4.841797A4 4 0 0 0 4.84375 5.550781L7.293 8 4.842 10.451A4 4 0 0 0 5.550781 11.15625L8 8.707 10.451 11.158A4 4 0 0 0 11.15625 10.449219L8.707 8 11.158 5.549A4 4 0 0 0 10.449219 4.84375L8 7.293z"
     id="path4" />
</svg>
