<?xml version="1.0" encoding="UTF-8" standalone="no"?>
<svg
   viewBox="0 0 16 16"
   version="1.1"
   id="svg6"
   sodipodi:docname="ct_sort-asc.svg"
   inkscape:version="1.1.2 (0a00cf5339, 2022-02-04)"
   xmlns:inkscape="http://www.inkscape.org/namespaces/inkscape"
   xmlns:sodipodi="http://sodipodi.sourceforge.net/DTD/sodipodi-0.dtd"
   xmlns="http://www.w3.org/2000/svg"
   xmlns:svg="http://www.w3.org/2000/svg">
  <sodipodi:namedview
     id="namedview8"
     pagecolor="#505050"
     bordercolor="#ffffff"
     borderopacity="1"
     inkscape:pageshadow="0"
     inkscape:pageopacity="0"
     inkscape:pagecheckerboard="1"
     showgrid="false"
     inkscape:zoom="44.8125"
     inkscape:cx="7.9888424"
     inkscape:cy="8"
     inkscape:window-width="1920"
     inkscape:window-height="1080"
     inkscape:window-x="0"
     inkscape:window-y="0"
     inkscape:window-maximized="1"
     inkscape:current-layer="svg6" />
  <defs
     id="defs3051">
    <style
       type="text/css"
       id="current-color-scheme">
      .ColorScheme-Text {
        color:#eff0f1;
      }
      </style>
  </defs>
  <path
     style="fill:#dfbf8e;fill-opacity:1;stroke:none"
     d="M 4.09375 2 C 3.31051 2.0182 2.71841 2.14339 2.28125 2.34375 L 2.53125 3.25 C 2.74072 3.1771 3.53552 2.9375 4 2.9375 L 4.0625 2.9375 C 4.70913 2.9648 4.75 3.19445 4.75 3.75 L 4.75 3.96875 L 4.40625 4.03125 C 2.83976 4.25893 2 4.45406 2 5.65625 C 2 6.49414 2.61657 7 3.5 7 C 4.1102 7 4.49642 6.75233 4.90625 6.40625 L 5 7 L 6 7 L 6 3.53125 C 6 2.50211 5.2804 2 4.1875 2 L 4.09375 2 z M 10.5 4 L 10.28125 4.1875 L 7 7.5 L 7.71875 8.1875 L 10 5.90625 L 10 14 L 11 14 L 11 5.90625 L 13.28125 8.1875 L 14 7.5 L 10.71875 4.1875 L 10.5 4 z M 4.75 4.6875 L 4.75 5.8125 C 4.41303 6.0402 4.15591 6.1875 3.71875 6.1875 C 3.32713 6.1875 3.125 5.93983 3.125 5.59375 C 3.125 4.93801 3.70497 4.81893 4.40625 4.71875 L 4.75 4.6875 z M 2 9 L 2 10 L 4.375 10 L 2 13.318359 L 2 14 L 6 14 L 6 13 L 4 13 L 6 10 L 6 9 L 2 9 z "
     class="ColorScheme-Text"
     id="path4" />
</svg>
